<mxfile host="app.diagrams.net" modified="2023-04-14T18:24:51.150Z" agent="Mozilla/5.0 (Windows NT 10.0; Win64; x64) AppleWebKit/537.36 (KHTML, like Gecko) Chrome/112.0.0.0 Safari/537.36 Edg/112.0.1722.39" etag="Sc0Vr3MFle3R9E23rxy8" version="21.1.8" type="device">
  <diagram name="PÃ¡gina-1" id="FYE1AaSjHG21gxEwm3ek">
    <mxGraphModel dx="636" dy="747" grid="1" gridSize="10" guides="1" tooltips="1" connect="1" arrows="1" fold="1" page="1" pageScale="1" pageWidth="3300" pageHeight="2339" math="0" shadow="0">
      <root>
        <mxCell id="0" />
        <mxCell id="1" parent="0" />
        <mxCell id="yfIUXpZ3AVK_rPEgyNf7-4" value="Personas" style="swimlane;fontStyle=1;childLayout=stackLayout;horizontal=1;startSize=26;horizontalStack=0;resizeParent=1;resizeParentMax=0;resizeLast=0;collapsible=1;marginBottom=0;align=center;fontSize=14;strokeWidth=2;fontFamily=Verdana;" parent="1" vertex="1">
          <mxGeometry x="580" y="159" width="160" height="176" as="geometry" />
        </mxCell>
        <mxCell id="yfIUXpZ3AVK_rPEgyNf7-5" value="id (&lt;i&gt;PK&lt;/i&gt;)" style="text;spacingLeft=4;spacingRight=4;overflow=hidden;rotatable=0;points=[[0,0.5],[1,0.5]];portConstraint=eastwest;fontSize=12;whiteSpace=wrap;html=1;strokeWidth=2;fontFamily=Verdana;" parent="yfIUXpZ3AVK_rPEgyNf7-4" vertex="1">
          <mxGeometry y="26" width="160" height="30" as="geometry" />
        </mxCell>
        <mxCell id="yfIUXpZ3AVK_rPEgyNf7-6" value="nombre" style="text;spacingLeft=4;spacingRight=4;overflow=hidden;rotatable=0;points=[[0,0.5],[1,0.5]];portConstraint=eastwest;fontSize=12;whiteSpace=wrap;html=1;strokeWidth=2;fontFamily=Verdana;" parent="yfIUXpZ3AVK_rPEgyNf7-4" vertex="1">
          <mxGeometry y="56" width="160" height="30" as="geometry" />
        </mxCell>
        <mxCell id="yfIUXpZ3AVK_rPEgyNf7-8" value="apellidos" style="text;spacingLeft=4;spacingRight=4;overflow=hidden;rotatable=0;points=[[0,0.5],[1,0.5]];portConstraint=eastwest;fontSize=12;whiteSpace=wrap;html=1;strokeWidth=2;fontFamily=Verdana;" parent="yfIUXpZ3AVK_rPEgyNf7-4" vertex="1">
          <mxGeometry y="86" width="160" height="30" as="geometry" />
        </mxCell>
        <mxCell id="yfIUXpZ3AVK_rPEgyNf7-9" value="ciudad" style="text;spacingLeft=4;spacingRight=4;overflow=hidden;rotatable=0;points=[[0,0.5],[1,0.5]];portConstraint=eastwest;fontSize=12;whiteSpace=wrap;html=1;strokeWidth=2;fontFamily=Verdana;" parent="yfIUXpZ3AVK_rPEgyNf7-4" vertex="1">
          <mxGeometry y="116" width="160" height="30" as="geometry" />
        </mxCell>
        <mxCell id="yfIUXpZ3AVK_rPEgyNf7-7" value="edad" style="text;spacingLeft=4;spacingRight=4;overflow=hidden;rotatable=0;points=[[0,0.5],[1,0.5]];portConstraint=eastwest;fontSize=12;whiteSpace=wrap;html=1;strokeWidth=2;fontFamily=Verdana;" parent="yfIUXpZ3AVK_rPEgyNf7-4" vertex="1">
          <mxGeometry y="146" width="160" height="30" as="geometry" />
        </mxCell>
        <mxCell id="yfIUXpZ3AVK_rPEgyNf7-10" value="NumCel" style="swimlane;fontStyle=1;childLayout=stackLayout;horizontal=1;startSize=26;horizontalStack=0;resizeParent=1;resizeParentMax=0;resizeLast=0;collapsible=1;marginBottom=0;align=center;fontSize=14;strokeWidth=2;fontFamily=Verdana;" parent="1" vertex="1">
          <mxGeometry x="770" y="174" width="160" height="146" as="geometry" />
        </mxCell>
        <mxCell id="yfIUXpZ3AVK_rPEgyNf7-11" value="id (&lt;i&gt;PK&lt;/i&gt;)" style="text;spacingLeft=4;spacingRight=4;overflow=hidden;rotatable=0;points=[[0,0.5],[1,0.5]];portConstraint=eastwest;fontSize=12;whiteSpace=wrap;html=1;strokeWidth=2;fontFamily=Verdana;" parent="yfIUXpZ3AVK_rPEgyNf7-10" vertex="1">
          <mxGeometry y="26" width="160" height="30" as="geometry" />
        </mxCell>
        <mxCell id="yfIUXpZ3AVK_rPEgyNf7-12" value="id_persona (&lt;i&gt;FK&lt;/i&gt;)" style="text;spacingLeft=4;spacingRight=4;overflow=hidden;rotatable=0;points=[[0,0.5],[1,0.5]];portConstraint=eastwest;fontSize=12;whiteSpace=wrap;html=1;strokeWidth=2;fontFamily=Verdana;" parent="yfIUXpZ3AVK_rPEgyNf7-10" vertex="1">
          <mxGeometry y="56" width="160" height="30" as="geometry" />
        </mxCell>
        <mxCell id="yfIUXpZ3AVK_rPEgyNf7-13" value="numero" style="text;spacingLeft=4;spacingRight=4;overflow=hidden;rotatable=0;points=[[0,0.5],[1,0.5]];portConstraint=eastwest;fontSize=12;whiteSpace=wrap;html=1;strokeWidth=2;fontFamily=Verdana;" parent="yfIUXpZ3AVK_rPEgyNf7-10" vertex="1">
          <mxGeometry y="86" width="160" height="30" as="geometry" />
        </mxCell>
        <mxCell id="yfIUXpZ3AVK_rPEgyNf7-14" value="tipo" style="text;spacingLeft=4;spacingRight=4;overflow=hidden;rotatable=0;points=[[0,0.5],[1,0.5]];portConstraint=eastwest;fontSize=12;whiteSpace=wrap;html=1;strokeWidth=2;fontFamily=Verdana;" parent="yfIUXpZ3AVK_rPEgyNf7-10" vertex="1">
          <mxGeometry y="116" width="160" height="30" as="geometry" />
        </mxCell>
        <mxCell id="yfIUXpZ3AVK_rPEgyNf7-16" style="edgeStyle=orthogonalEdgeStyle;rounded=0;orthogonalLoop=1;jettySize=auto;html=1;entryX=1;entryY=0.5;entryDx=0;entryDy=0;strokeWidth=2;fontFamily=Verdana;" parent="1" source="yfIUXpZ3AVK_rPEgyNf7-12" target="yfIUXpZ3AVK_rPEgyNf7-5" edge="1">
          <mxGeometry relative="1" as="geometry">
            <Array as="points">
              <mxPoint x="760" y="245" />
              <mxPoint x="760" y="200" />
            </Array>
          </mxGeometry>
        </mxCell>
        <mxCell id="HmA8ot8jOnDpJhsBfONr-13" value="" style="shape=table;startSize=0;container=1;collapsible=0;childLayout=tableLayout;fontFamily=Verdana;" vertex="1" parent="1">
          <mxGeometry x="420" y="380" width="320" height="160" as="geometry" />
        </mxCell>
        <mxCell id="HmA8ot8jOnDpJhsBfONr-14" value="" style="shape=tableRow;horizontal=0;startSize=0;swimlaneHead=0;swimlaneBody=0;strokeColor=inherit;top=0;left=0;bottom=0;right=0;collapsible=0;dropTarget=0;fillColor=none;points=[[0,0.5],[1,0.5]];portConstraint=eastwest;fontFamily=Verdana;" vertex="1" parent="HmA8ot8jOnDpJhsBfONr-13">
          <mxGeometry width="320" height="40" as="geometry" />
        </mxCell>
        <mxCell id="HmA8ot8jOnDpJhsBfONr-15" value="id" style="shape=partialRectangle;html=1;whiteSpace=wrap;connectable=0;strokeColor=#666666;overflow=hidden;fillColor=#f5f5f5;top=0;left=0;bottom=0;right=0;pointerEvents=1;perimeterSpacing=0;fontColor=#333333;fontFamily=Verdana;" vertex="1" parent="HmA8ot8jOnDpJhsBfONr-14">
          <mxGeometry width="60" height="40" as="geometry">
            <mxRectangle width="60" height="40" as="alternateBounds" />
          </mxGeometry>
        </mxCell>
        <mxCell id="HmA8ot8jOnDpJhsBfONr-16" value="nombre" style="shape=partialRectangle;html=1;whiteSpace=wrap;connectable=0;strokeColor=#666666;overflow=hidden;fillColor=#f5f5f5;top=0;left=0;bottom=0;right=0;pointerEvents=1;fontColor=#333333;fontFamily=Verdana;" vertex="1" parent="HmA8ot8jOnDpJhsBfONr-14">
          <mxGeometry x="60" width="60" height="40" as="geometry">
            <mxRectangle width="60" height="40" as="alternateBounds" />
          </mxGeometry>
        </mxCell>
        <mxCell id="HmA8ot8jOnDpJhsBfONr-17" value="apellidos" style="shape=partialRectangle;html=1;whiteSpace=wrap;connectable=0;strokeColor=#666666;overflow=hidden;fillColor=#f5f5f5;top=0;left=0;bottom=0;right=0;pointerEvents=1;fontColor=#333333;fontFamily=Verdana;" vertex="1" parent="HmA8ot8jOnDpJhsBfONr-14">
          <mxGeometry x="120" width="70" height="40" as="geometry">
            <mxRectangle width="70" height="40" as="alternateBounds" />
          </mxGeometry>
        </mxCell>
        <mxCell id="HmA8ot8jOnDpJhsBfONr-18" value="ciudad" style="shape=partialRectangle;html=1;whiteSpace=wrap;connectable=0;strokeColor=#666666;overflow=hidden;fillColor=#f5f5f5;top=0;left=0;bottom=0;right=0;pointerEvents=1;fontColor=#333333;fontFamily=Verdana;" vertex="1" parent="HmA8ot8jOnDpJhsBfONr-14">
          <mxGeometry x="190" width="80" height="40" as="geometry">
            <mxRectangle width="80" height="40" as="alternateBounds" />
          </mxGeometry>
        </mxCell>
        <mxCell id="HmA8ot8jOnDpJhsBfONr-19" value="edad" style="shape=partialRectangle;html=1;whiteSpace=wrap;connectable=0;strokeColor=#666666;overflow=hidden;fillColor=#f5f5f5;top=0;left=0;bottom=0;right=0;pointerEvents=1;fontColor=#333333;fontFamily=Verdana;" vertex="1" parent="HmA8ot8jOnDpJhsBfONr-14">
          <mxGeometry x="270" width="50" height="40" as="geometry">
            <mxRectangle width="50" height="40" as="alternateBounds" />
          </mxGeometry>
        </mxCell>
        <mxCell id="HmA8ot8jOnDpJhsBfONr-20" value="" style="shape=tableRow;horizontal=0;startSize=0;swimlaneHead=0;swimlaneBody=0;strokeColor=inherit;top=0;left=0;bottom=0;right=0;collapsible=0;dropTarget=0;fillColor=none;points=[[0,0.5],[1,0.5]];portConstraint=eastwest;fontFamily=Verdana;" vertex="1" parent="HmA8ot8jOnDpJhsBfONr-13">
          <mxGeometry y="40" width="320" height="40" as="geometry" />
        </mxCell>
        <mxCell id="HmA8ot8jOnDpJhsBfONr-21" value="1" style="shape=partialRectangle;html=1;whiteSpace=wrap;connectable=0;strokeColor=inherit;overflow=hidden;fillColor=none;top=0;left=0;bottom=0;right=0;pointerEvents=1;perimeterSpacing=0;align=right;fontFamily=Verdana;" vertex="1" parent="HmA8ot8jOnDpJhsBfONr-20">
          <mxGeometry width="60" height="40" as="geometry">
            <mxRectangle width="60" height="40" as="alternateBounds" />
          </mxGeometry>
        </mxCell>
        <mxCell id="HmA8ot8jOnDpJhsBfONr-22" value="John" style="shape=partialRectangle;html=1;whiteSpace=wrap;connectable=0;strokeColor=inherit;overflow=hidden;fillColor=none;top=0;left=0;bottom=0;right=0;pointerEvents=1;align=left;fontFamily=Verdana;" vertex="1" parent="HmA8ot8jOnDpJhsBfONr-20">
          <mxGeometry x="60" width="60" height="40" as="geometry">
            <mxRectangle width="60" height="40" as="alternateBounds" />
          </mxGeometry>
        </mxCell>
        <mxCell id="HmA8ot8jOnDpJhsBfONr-23" value="Smith" style="shape=partialRectangle;html=1;whiteSpace=wrap;connectable=0;strokeColor=inherit;overflow=hidden;fillColor=none;top=0;left=0;bottom=0;right=0;pointerEvents=1;align=left;fontFamily=Verdana;" vertex="1" parent="HmA8ot8jOnDpJhsBfONr-20">
          <mxGeometry x="120" width="70" height="40" as="geometry">
            <mxRectangle width="70" height="40" as="alternateBounds" />
          </mxGeometry>
        </mxCell>
        <mxCell id="HmA8ot8jOnDpJhsBfONr-24" value="New York" style="shape=partialRectangle;html=1;whiteSpace=wrap;connectable=0;strokeColor=inherit;overflow=hidden;fillColor=none;top=0;left=0;bottom=0;right=0;pointerEvents=1;align=left;fontFamily=Verdana;" vertex="1" parent="HmA8ot8jOnDpJhsBfONr-20">
          <mxGeometry x="190" width="80" height="40" as="geometry">
            <mxRectangle width="80" height="40" as="alternateBounds" />
          </mxGeometry>
        </mxCell>
        <mxCell id="HmA8ot8jOnDpJhsBfONr-25" value="24" style="shape=partialRectangle;html=1;whiteSpace=wrap;connectable=0;strokeColor=inherit;overflow=hidden;fillColor=none;top=0;left=0;bottom=0;right=0;pointerEvents=1;align=right;fontFamily=Verdana;" vertex="1" parent="HmA8ot8jOnDpJhsBfONr-20">
          <mxGeometry x="270" width="50" height="40" as="geometry">
            <mxRectangle width="50" height="40" as="alternateBounds" />
          </mxGeometry>
        </mxCell>
        <mxCell id="HmA8ot8jOnDpJhsBfONr-26" value="" style="shape=tableRow;horizontal=0;startSize=0;swimlaneHead=0;swimlaneBody=0;strokeColor=inherit;top=0;left=0;bottom=0;right=0;collapsible=0;dropTarget=0;fillColor=none;points=[[0,0.5],[1,0.5]];portConstraint=eastwest;fontFamily=Verdana;" vertex="1" parent="HmA8ot8jOnDpJhsBfONr-13">
          <mxGeometry y="80" width="320" height="40" as="geometry" />
        </mxCell>
        <mxCell id="HmA8ot8jOnDpJhsBfONr-27" value="2" style="shape=partialRectangle;html=1;whiteSpace=wrap;connectable=0;strokeColor=inherit;overflow=hidden;fillColor=none;top=0;left=0;bottom=0;right=0;pointerEvents=1;perimeterSpacing=0;align=right;fontFamily=Verdana;" vertex="1" parent="HmA8ot8jOnDpJhsBfONr-26">
          <mxGeometry width="60" height="40" as="geometry">
            <mxRectangle width="60" height="40" as="alternateBounds" />
          </mxGeometry>
        </mxCell>
        <mxCell id="HmA8ot8jOnDpJhsBfONr-28" value="David" style="shape=partialRectangle;html=1;whiteSpace=wrap;connectable=0;strokeColor=inherit;overflow=hidden;fillColor=none;top=0;left=0;bottom=0;right=0;pointerEvents=1;align=left;fontFamily=Verdana;" vertex="1" parent="HmA8ot8jOnDpJhsBfONr-26">
          <mxGeometry x="60" width="60" height="40" as="geometry">
            <mxRectangle width="60" height="40" as="alternateBounds" />
          </mxGeometry>
        </mxCell>
        <mxCell id="HmA8ot8jOnDpJhsBfONr-29" value="Williams" style="shape=partialRectangle;html=1;whiteSpace=wrap;connectable=0;strokeColor=inherit;overflow=hidden;fillColor=none;top=0;left=0;bottom=0;right=0;pointerEvents=1;align=left;fontFamily=Verdana;" vertex="1" parent="HmA8ot8jOnDpJhsBfONr-26">
          <mxGeometry x="120" width="70" height="40" as="geometry">
            <mxRectangle width="70" height="40" as="alternateBounds" />
          </mxGeometry>
        </mxCell>
        <mxCell id="HmA8ot8jOnDpJhsBfONr-30" value="Los Angeles" style="shape=partialRectangle;html=1;whiteSpace=wrap;connectable=0;strokeColor=inherit;overflow=hidden;fillColor=none;top=0;left=0;bottom=0;right=0;pointerEvents=1;align=left;fontFamily=Verdana;" vertex="1" parent="HmA8ot8jOnDpJhsBfONr-26">
          <mxGeometry x="190" width="80" height="40" as="geometry">
            <mxRectangle width="80" height="40" as="alternateBounds" />
          </mxGeometry>
        </mxCell>
        <mxCell id="HmA8ot8jOnDpJhsBfONr-31" value="42" style="shape=partialRectangle;html=1;whiteSpace=wrap;connectable=0;strokeColor=inherit;overflow=hidden;fillColor=none;top=0;left=0;bottom=0;right=0;pointerEvents=1;align=right;fontFamily=Verdana;" vertex="1" parent="HmA8ot8jOnDpJhsBfONr-26">
          <mxGeometry x="270" width="50" height="40" as="geometry">
            <mxRectangle width="50" height="40" as="alternateBounds" />
          </mxGeometry>
        </mxCell>
        <mxCell id="HmA8ot8jOnDpJhsBfONr-32" value="" style="shape=tableRow;horizontal=0;startSize=0;swimlaneHead=0;swimlaneBody=0;strokeColor=inherit;top=0;left=0;bottom=0;right=0;collapsible=0;dropTarget=0;fillColor=none;points=[[0,0.5],[1,0.5]];portConstraint=eastwest;fontFamily=Verdana;" vertex="1" parent="HmA8ot8jOnDpJhsBfONr-13">
          <mxGeometry y="120" width="320" height="40" as="geometry" />
        </mxCell>
        <mxCell id="HmA8ot8jOnDpJhsBfONr-33" value="3" style="shape=partialRectangle;html=1;whiteSpace=wrap;connectable=0;strokeColor=inherit;overflow=hidden;fillColor=none;top=0;left=0;bottom=0;right=0;pointerEvents=1;perimeterSpacing=0;align=right;fontFamily=Verdana;" vertex="1" parent="HmA8ot8jOnDpJhsBfONr-32">
          <mxGeometry width="60" height="40" as="geometry">
            <mxRectangle width="60" height="40" as="alternateBounds" />
          </mxGeometry>
        </mxCell>
        <mxCell id="HmA8ot8jOnDpJhsBfONr-34" value="Chloe" style="shape=partialRectangle;html=1;whiteSpace=wrap;connectable=0;strokeColor=inherit;overflow=hidden;fillColor=none;top=0;left=0;bottom=0;right=0;pointerEvents=1;align=left;fontFamily=Verdana;" vertex="1" parent="HmA8ot8jOnDpJhsBfONr-32">
          <mxGeometry x="60" width="60" height="40" as="geometry">
            <mxRectangle width="60" height="40" as="alternateBounds" />
          </mxGeometry>
        </mxCell>
        <mxCell id="HmA8ot8jOnDpJhsBfONr-35" value="Anderson" style="shape=partialRectangle;html=1;whiteSpace=wrap;connectable=0;strokeColor=inherit;overflow=hidden;fillColor=none;top=0;left=0;bottom=0;right=0;pointerEvents=1;align=left;fontFamily=Verdana;" vertex="1" parent="HmA8ot8jOnDpJhsBfONr-32">
          <mxGeometry x="120" width="70" height="40" as="geometry">
            <mxRectangle width="70" height="40" as="alternateBounds" />
          </mxGeometry>
        </mxCell>
        <mxCell id="HmA8ot8jOnDpJhsBfONr-36" value="Chicago" style="shape=partialRectangle;html=1;whiteSpace=wrap;connectable=0;strokeColor=inherit;overflow=hidden;fillColor=none;top=0;left=0;bottom=0;right=0;pointerEvents=1;align=left;fontFamily=Verdana;" vertex="1" parent="HmA8ot8jOnDpJhsBfONr-32">
          <mxGeometry x="190" width="80" height="40" as="geometry">
            <mxRectangle width="80" height="40" as="alternateBounds" />
          </mxGeometry>
        </mxCell>
        <mxCell id="HmA8ot8jOnDpJhsBfONr-37" value="65" style="shape=partialRectangle;html=1;whiteSpace=wrap;connectable=0;strokeColor=inherit;overflow=hidden;fillColor=none;top=0;left=0;bottom=0;right=0;pointerEvents=1;align=right;fontFamily=Verdana;" vertex="1" parent="HmA8ot8jOnDpJhsBfONr-32">
          <mxGeometry x="270" width="50" height="40" as="geometry">
            <mxRectangle width="50" height="40" as="alternateBounds" />
          </mxGeometry>
        </mxCell>
        <mxCell id="HmA8ot8jOnDpJhsBfONr-38" value="" style="shape=table;startSize=0;container=1;collapsible=0;childLayout=tableLayout;fontFamily=Verdana;" vertex="1" parent="1">
          <mxGeometry x="770" y="340" width="310" height="240" as="geometry" />
        </mxCell>
        <mxCell id="HmA8ot8jOnDpJhsBfONr-39" value="" style="shape=tableRow;horizontal=0;startSize=0;swimlaneHead=0;swimlaneBody=0;strokeColor=inherit;top=0;left=0;bottom=0;right=0;collapsible=0;dropTarget=0;fillColor=none;points=[[0,0.5],[1,0.5]];portConstraint=eastwest;align=center;fontFamily=Verdana;" vertex="1" parent="HmA8ot8jOnDpJhsBfONr-38">
          <mxGeometry width="310" height="40" as="geometry" />
        </mxCell>
        <mxCell id="HmA8ot8jOnDpJhsBfONr-40" value="id" style="shape=partialRectangle;html=1;whiteSpace=wrap;connectable=0;strokeColor=#666666;overflow=hidden;fillColor=#f5f5f5;top=0;left=0;bottom=0;right=0;pointerEvents=1;align=center;fontColor=#333333;fontFamily=Verdana;" vertex="1" parent="HmA8ot8jOnDpJhsBfONr-39">
          <mxGeometry width="60" height="40" as="geometry">
            <mxRectangle width="60" height="40" as="alternateBounds" />
          </mxGeometry>
        </mxCell>
        <mxCell id="HmA8ot8jOnDpJhsBfONr-41" value="id_persona" style="shape=partialRectangle;html=1;whiteSpace=wrap;connectable=0;strokeColor=#666666;overflow=hidden;fillColor=#f5f5f5;top=0;left=0;bottom=0;right=0;pointerEvents=1;align=center;fontColor=#333333;fontFamily=Verdana;" vertex="1" parent="HmA8ot8jOnDpJhsBfONr-39">
          <mxGeometry x="60" width="70" height="40" as="geometry">
            <mxRectangle width="70" height="40" as="alternateBounds" />
          </mxGeometry>
        </mxCell>
        <mxCell id="HmA8ot8jOnDpJhsBfONr-42" value="numero" style="shape=partialRectangle;html=1;whiteSpace=wrap;connectable=0;strokeColor=#666666;overflow=hidden;fillColor=#f5f5f5;top=0;left=0;bottom=0;right=0;pointerEvents=1;align=center;fontColor=#333333;fontFamily=Verdana;" vertex="1" parent="HmA8ot8jOnDpJhsBfONr-39">
          <mxGeometry x="130" width="90" height="40" as="geometry">
            <mxRectangle width="90" height="40" as="alternateBounds" />
          </mxGeometry>
        </mxCell>
        <mxCell id="HmA8ot8jOnDpJhsBfONr-43" value="tipo" style="shape=partialRectangle;html=1;whiteSpace=wrap;connectable=0;strokeColor=#666666;overflow=hidden;fillColor=#f5f5f5;top=0;left=0;bottom=0;right=0;pointerEvents=1;align=center;fontColor=#333333;fontFamily=Verdana;" vertex="1" parent="HmA8ot8jOnDpJhsBfONr-39">
          <mxGeometry x="220" width="90" height="40" as="geometry">
            <mxRectangle width="90" height="40" as="alternateBounds" />
          </mxGeometry>
        </mxCell>
        <mxCell id="HmA8ot8jOnDpJhsBfONr-44" value="" style="shape=tableRow;horizontal=0;startSize=0;swimlaneHead=0;swimlaneBody=0;strokeColor=inherit;top=0;left=0;bottom=0;right=0;collapsible=0;dropTarget=0;fillColor=none;points=[[0,0.5],[1,0.5]];portConstraint=eastwest;fontFamily=Verdana;" vertex="1" parent="HmA8ot8jOnDpJhsBfONr-38">
          <mxGeometry y="40" width="310" height="40" as="geometry" />
        </mxCell>
        <mxCell id="HmA8ot8jOnDpJhsBfONr-45" value="1" style="shape=partialRectangle;html=1;whiteSpace=wrap;connectable=0;strokeColor=inherit;overflow=hidden;fillColor=none;top=0;left=0;bottom=0;right=0;pointerEvents=1;align=right;fontFamily=Verdana;" vertex="1" parent="HmA8ot8jOnDpJhsBfONr-44">
          <mxGeometry width="60" height="40" as="geometry">
            <mxRectangle width="60" height="40" as="alternateBounds" />
          </mxGeometry>
        </mxCell>
        <mxCell id="HmA8ot8jOnDpJhsBfONr-46" value="1" style="shape=partialRectangle;html=1;whiteSpace=wrap;connectable=0;strokeColor=inherit;overflow=hidden;fillColor=none;top=0;left=0;bottom=0;right=0;pointerEvents=1;align=right;fontFamily=Verdana;" vertex="1" parent="HmA8ot8jOnDpJhsBfONr-44">
          <mxGeometry x="60" width="70" height="40" as="geometry">
            <mxRectangle width="70" height="40" as="alternateBounds" />
          </mxGeometry>
        </mxCell>
        <mxCell id="HmA8ot8jOnDpJhsBfONr-47" value="555123456" style="shape=partialRectangle;html=1;whiteSpace=wrap;connectable=0;strokeColor=inherit;overflow=hidden;fillColor=none;top=0;left=0;bottom=0;right=0;pointerEvents=1;align=left;fontFamily=Verdana;" vertex="1" parent="HmA8ot8jOnDpJhsBfONr-44">
          <mxGeometry x="130" width="90" height="40" as="geometry">
            <mxRectangle width="90" height="40" as="alternateBounds" />
          </mxGeometry>
        </mxCell>
        <mxCell id="HmA8ot8jOnDpJhsBfONr-48" value="mÃ³vil" style="shape=partialRectangle;html=1;whiteSpace=wrap;connectable=0;strokeColor=inherit;overflow=hidden;fillColor=none;top=0;left=0;bottom=0;right=0;pointerEvents=1;align=left;fontFamily=Verdana;" vertex="1" parent="HmA8ot8jOnDpJhsBfONr-44">
          <mxGeometry x="220" width="90" height="40" as="geometry">
            <mxRectangle width="90" height="40" as="alternateBounds" />
          </mxGeometry>
        </mxCell>
        <mxCell id="HmA8ot8jOnDpJhsBfONr-49" value="" style="shape=tableRow;horizontal=0;startSize=0;swimlaneHead=0;swimlaneBody=0;strokeColor=inherit;top=0;left=0;bottom=0;right=0;collapsible=0;dropTarget=0;fillColor=none;points=[[0,0.5],[1,0.5]];portConstraint=eastwest;fontFamily=Verdana;" vertex="1" parent="HmA8ot8jOnDpJhsBfONr-38">
          <mxGeometry y="80" width="310" height="40" as="geometry" />
        </mxCell>
        <mxCell id="HmA8ot8jOnDpJhsBfONr-50" value="2" style="shape=partialRectangle;html=1;whiteSpace=wrap;connectable=0;strokeColor=inherit;overflow=hidden;fillColor=none;top=0;left=0;bottom=0;right=0;pointerEvents=1;align=right;fontFamily=Verdana;" vertex="1" parent="HmA8ot8jOnDpJhsBfONr-49">
          <mxGeometry width="60" height="40" as="geometry">
            <mxRectangle width="60" height="40" as="alternateBounds" />
          </mxGeometry>
        </mxCell>
        <mxCell id="HmA8ot8jOnDpJhsBfONr-51" value="1" style="shape=partialRectangle;html=1;whiteSpace=wrap;connectable=0;strokeColor=inherit;overflow=hidden;fillColor=none;top=0;left=0;bottom=0;right=0;pointerEvents=1;align=right;fontFamily=Verdana;" vertex="1" parent="HmA8ot8jOnDpJhsBfONr-49">
          <mxGeometry x="60" width="70" height="40" as="geometry">
            <mxRectangle width="70" height="40" as="alternateBounds" />
          </mxGeometry>
        </mxCell>
        <mxCell id="HmA8ot8jOnDpJhsBfONr-52" value="943554545" style="shape=partialRectangle;html=1;whiteSpace=wrap;connectable=0;strokeColor=inherit;overflow=hidden;fillColor=none;top=0;left=0;bottom=0;right=0;pointerEvents=1;align=left;fontFamily=Verdana;" vertex="1" parent="HmA8ot8jOnDpJhsBfONr-49">
          <mxGeometry x="130" width="90" height="40" as="geometry">
            <mxRectangle width="90" height="40" as="alternateBounds" />
          </mxGeometry>
        </mxCell>
        <mxCell id="HmA8ot8jOnDpJhsBfONr-53" value="casa" style="shape=partialRectangle;html=1;whiteSpace=wrap;connectable=0;strokeColor=inherit;overflow=hidden;fillColor=none;top=0;left=0;bottom=0;right=0;pointerEvents=1;align=left;fontFamily=Verdana;" vertex="1" parent="HmA8ot8jOnDpJhsBfONr-49">
          <mxGeometry x="220" width="90" height="40" as="geometry">
            <mxRectangle width="90" height="40" as="alternateBounds" />
          </mxGeometry>
        </mxCell>
        <mxCell id="HmA8ot8jOnDpJhsBfONr-54" value="" style="shape=tableRow;horizontal=0;startSize=0;swimlaneHead=0;swimlaneBody=0;strokeColor=inherit;top=0;left=0;bottom=0;right=0;collapsible=0;dropTarget=0;fillColor=none;points=[[0,0.5],[1,0.5]];portConstraint=eastwest;fontFamily=Verdana;" vertex="1" parent="HmA8ot8jOnDpJhsBfONr-38">
          <mxGeometry y="120" width="310" height="40" as="geometry" />
        </mxCell>
        <mxCell id="HmA8ot8jOnDpJhsBfONr-55" value="3" style="shape=partialRectangle;html=1;whiteSpace=wrap;connectable=0;strokeColor=inherit;overflow=hidden;fillColor=none;top=0;left=0;bottom=0;right=0;pointerEvents=1;align=right;fontFamily=Verdana;" vertex="1" parent="HmA8ot8jOnDpJhsBfONr-54">
          <mxGeometry width="60" height="40" as="geometry">
            <mxRectangle width="60" height="40" as="alternateBounds" />
          </mxGeometry>
        </mxCell>
        <mxCell id="HmA8ot8jOnDpJhsBfONr-56" value="2" style="shape=partialRectangle;html=1;whiteSpace=wrap;connectable=0;strokeColor=inherit;overflow=hidden;fillColor=none;top=0;left=0;bottom=0;right=0;pointerEvents=1;align=right;fontFamily=Verdana;" vertex="1" parent="HmA8ot8jOnDpJhsBfONr-54">
          <mxGeometry x="60" width="70" height="40" as="geometry">
            <mxRectangle width="70" height="40" as="alternateBounds" />
          </mxGeometry>
        </mxCell>
        <mxCell id="HmA8ot8jOnDpJhsBfONr-57" value="331111111" style="shape=partialRectangle;html=1;whiteSpace=wrap;connectable=0;strokeColor=inherit;overflow=hidden;fillColor=none;top=0;left=0;bottom=0;right=0;pointerEvents=1;align=left;fontFamily=Verdana;" vertex="1" parent="HmA8ot8jOnDpJhsBfONr-54">
          <mxGeometry x="130" width="90" height="40" as="geometry">
            <mxRectangle width="90" height="40" as="alternateBounds" />
          </mxGeometry>
        </mxCell>
        <mxCell id="HmA8ot8jOnDpJhsBfONr-58" value="mÃ³vil" style="shape=partialRectangle;html=1;whiteSpace=wrap;connectable=0;strokeColor=inherit;overflow=hidden;fillColor=none;top=0;left=0;bottom=0;right=0;pointerEvents=1;align=left;fontFamily=Verdana;" vertex="1" parent="HmA8ot8jOnDpJhsBfONr-54">
          <mxGeometry x="220" width="90" height="40" as="geometry">
            <mxRectangle width="90" height="40" as="alternateBounds" />
          </mxGeometry>
        </mxCell>
        <mxCell id="HmA8ot8jOnDpJhsBfONr-59" value="" style="shape=tableRow;horizontal=0;startSize=0;swimlaneHead=0;swimlaneBody=0;strokeColor=inherit;top=0;left=0;bottom=0;right=0;collapsible=0;dropTarget=0;fillColor=none;points=[[0,0.5],[1,0.5]];portConstraint=eastwest;fontFamily=Verdana;" vertex="1" parent="HmA8ot8jOnDpJhsBfONr-38">
          <mxGeometry y="160" width="310" height="40" as="geometry" />
        </mxCell>
        <mxCell id="HmA8ot8jOnDpJhsBfONr-60" value="4" style="shape=partialRectangle;html=1;whiteSpace=wrap;connectable=0;strokeColor=inherit;overflow=hidden;fillColor=none;top=0;left=0;bottom=0;right=0;pointerEvents=1;align=right;fontFamily=Verdana;" vertex="1" parent="HmA8ot8jOnDpJhsBfONr-59">
          <mxGeometry width="60" height="40" as="geometry">
            <mxRectangle width="60" height="40" as="alternateBounds" />
          </mxGeometry>
        </mxCell>
        <mxCell id="HmA8ot8jOnDpJhsBfONr-61" value="2" style="shape=partialRectangle;html=1;whiteSpace=wrap;connectable=0;strokeColor=inherit;overflow=hidden;fillColor=none;top=0;left=0;bottom=0;right=0;pointerEvents=1;align=right;fontFamily=Verdana;" vertex="1" parent="HmA8ot8jOnDpJhsBfONr-59">
          <mxGeometry x="60" width="70" height="40" as="geometry">
            <mxRectangle width="70" height="40" as="alternateBounds" />
          </mxGeometry>
        </mxCell>
        <mxCell id="HmA8ot8jOnDpJhsBfONr-62" value="88112233" style="shape=partialRectangle;html=1;whiteSpace=wrap;connectable=0;strokeColor=inherit;overflow=hidden;fillColor=none;top=0;left=0;bottom=0;right=0;pointerEvents=1;align=left;fontFamily=Verdana;" vertex="1" parent="HmA8ot8jOnDpJhsBfONr-59">
          <mxGeometry x="130" width="90" height="40" as="geometry">
            <mxRectangle width="90" height="40" as="alternateBounds" />
          </mxGeometry>
        </mxCell>
        <mxCell id="HmA8ot8jOnDpJhsBfONr-63" value="trabajo" style="shape=partialRectangle;html=1;whiteSpace=wrap;connectable=0;strokeColor=inherit;overflow=hidden;fillColor=none;top=0;left=0;bottom=0;right=0;pointerEvents=1;align=left;fontFamily=Verdana;" vertex="1" parent="HmA8ot8jOnDpJhsBfONr-59">
          <mxGeometry x="220" width="90" height="40" as="geometry">
            <mxRectangle width="90" height="40" as="alternateBounds" />
          </mxGeometry>
        </mxCell>
        <mxCell id="HmA8ot8jOnDpJhsBfONr-64" value="" style="shape=tableRow;horizontal=0;startSize=0;swimlaneHead=0;swimlaneBody=0;strokeColor=inherit;top=0;left=0;bottom=0;right=0;collapsible=0;dropTarget=0;fillColor=none;points=[[0,0.5],[1,0.5]];portConstraint=eastwest;fixedWidth=0;resizeWidth=0;fontFamily=Verdana;" vertex="1" parent="HmA8ot8jOnDpJhsBfONr-38">
          <mxGeometry y="200" width="310" height="40" as="geometry" />
        </mxCell>
        <mxCell id="HmA8ot8jOnDpJhsBfONr-65" value="5" style="shape=partialRectangle;html=1;whiteSpace=wrap;connectable=0;strokeColor=inherit;overflow=hidden;fillColor=none;top=0;left=0;bottom=0;right=0;pointerEvents=1;fixedWidth=0;resizeWidth=0;align=right;fontFamily=Verdana;" vertex="1" parent="HmA8ot8jOnDpJhsBfONr-64">
          <mxGeometry width="60" height="40" as="geometry">
            <mxRectangle width="60" height="40" as="alternateBounds" />
          </mxGeometry>
        </mxCell>
        <mxCell id="HmA8ot8jOnDpJhsBfONr-66" value="2" style="shape=partialRectangle;html=1;whiteSpace=wrap;connectable=0;strokeColor=inherit;overflow=hidden;fillColor=none;top=0;left=0;bottom=0;right=0;pointerEvents=1;fixedWidth=0;resizeWidth=0;align=right;fontFamily=Verdana;" vertex="1" parent="HmA8ot8jOnDpJhsBfONr-64">
          <mxGeometry x="60" width="70" height="40" as="geometry">
            <mxRectangle width="70" height="40" as="alternateBounds" />
          </mxGeometry>
        </mxCell>
        <mxCell id="HmA8ot8jOnDpJhsBfONr-67" value="999001133" style="shape=partialRectangle;html=1;whiteSpace=wrap;connectable=0;strokeColor=inherit;overflow=hidden;fillColor=none;top=0;left=0;bottom=0;right=0;pointerEvents=1;fixedWidth=0;resizeWidth=0;align=left;fontFamily=Verdana;" vertex="1" parent="HmA8ot8jOnDpJhsBfONr-64">
          <mxGeometry x="130" width="90" height="40" as="geometry">
            <mxRectangle width="90" height="40" as="alternateBounds" />
          </mxGeometry>
        </mxCell>
        <mxCell id="HmA8ot8jOnDpJhsBfONr-68" value="emergencia" style="shape=partialRectangle;html=1;whiteSpace=wrap;connectable=0;strokeColor=inherit;overflow=hidden;fillColor=none;top=0;left=0;bottom=0;right=0;pointerEvents=1;fixedWidth=0;resizeWidth=0;align=left;fontFamily=Verdana;" vertex="1" parent="HmA8ot8jOnDpJhsBfONr-64">
          <mxGeometry x="220" width="90" height="40" as="geometry">
            <mxRectangle width="90" height="40" as="alternateBounds" />
          </mxGeometry>
        </mxCell>
      </root>
    </mxGraphModel>
  </diagram>
</mxfile>
